<svg xmlns="http://www.w3.org/2000/svg" width="1280" height="720" viewBox="0 0 1280 720" font-family="'Segoe UI', system-ui, -apple-system, Helvetica, Arial, sans-serif"><defs>
  <linearGradient id="bg" x1="0" y1="0" x2="0" y2="1">
    <stop offset="0" stop-color="#0a0e16"/><stop offset="1" stop-color="#0d1117"/>
  </linearGradient>
  <linearGradient id="accent" x1="0" y1="0" x2="1" y2="0">
    <stop offset="0" stop-color="#2dd4bf"/><stop offset="0.5" stop-color="#4493f8"/><stop offset="1" stop-color="#2dd4bf"/>
  </linearGradient>
  <pattern id="grid" width="32" height="32" patternUnits="userSpaceOnUse">
    <path d="M 32 0 L 0 0 0 32" fill="none" stroke="#161d27" stroke-width="1"/>
  </pattern>
  <filter id="soft" x="-20%" y="-20%" width="140%" height="140%">
    <feDropShadow dx="0" dy="4" stdDeviation="8" flood-color="#000000" flood-opacity="0.45"/>
  </filter>
  <filter id="glow" x="-60%" y="-60%" width="220%" height="220%">
    <feDropShadow dx="0" dy="0" stdDeviation="6" flood-color="#2dd4bf" flood-opacity="0.5"/>
  </filter>
</defs><rect x="0" y="0" width="1280" height="720" rx="0" ry="0" fill="url(#bg)"/><rect x="0" y="0" width="1280" height="720" fill="url(#grid)" opacity="0.5"/><rect x="0" y="0" width="1280" height="4" fill="url(#accent)"/><text x="1252" y="698" font-size="12.5" fill="#69788b" font-family="'SF Mono','JetBrains Mono','Fira Code',Menlo,Consolas,'Liberation Mono',monospace" font-weight="400" text-anchor="end">github.com/TAIPANBOX/qryx</text><text x="40" y="56" font-size="28" fill="#e6edf3" font-family="'Segoe UI', system-ui, -apple-system, Helvetica, Arial, sans-serif" font-weight="700" text-anchor="start">Risk classification</text><text x="40" y="84" font-size="15" fill="#9aa7b8" font-family="'Segoe UI', system-ui, -apple-system, Helvetica, Arial, sans-serif" font-weight="400" text-anchor="start">Every asset in the graph is scored against a post-quantum and hygiene risk model.</text><line x1="40" y1="100" x2="1240" y2="100" stroke="#222b38" stroke-width="1"/><rect x="40" y="250" width="250" height="220" rx="14" ry="14" fill="#141a23" stroke="#283341" stroke-width="1" filter="soft"/><text x="165.0" y="294" font-size="16" fill="#e6edf3" font-family="'Segoe UI', system-ui, -apple-system, Helvetica, Arial, sans-serif" font-weight="700" text-anchor="middle">Cryptographic</text><text x="165.0" y="318" font-size="16" fill="#e6edf3" font-family="'Segoe UI', system-ui, -apple-system, Helvetica, Arial, sans-serif" font-weight="700" text-anchor="middle">Asset Graph</text><circle cx="119.0" cy="376" r="9" fill="#1a212c" stroke="#ff6b63" stroke-width="2"/><circle cx="165.0" cy="392" r="9" fill="#1a212c" stroke="#3fb950" stroke-width="2"/><circle cx="211.0" cy="376" r="9" fill="#1a212c" stroke="#e3b341" stroke-width="2"/><circle cx="141.0" cy="422" r="9" fill="#1a212c" stroke="#f0544c" stroke-width="2"/><circle cx="193.0" cy="424" r="9" fill="#1a212c" stroke="#4493f8" stroke-width="2"/><text x="165.0" y="452" font-size="11.5" fill="#69788b" font-family="'SF Mono','JetBrains Mono','Fira Code',Menlo,Consolas,'Liberation Mono',monospace" font-weight="400" text-anchor="middle">dedup across sources</text><rect x="330" y="300" width="170" height="120" rx="14" ry="14" fill="#1a212c" stroke="#2dd4bf" stroke-width="1.6" filter="glow"/><text x="415.0" y="346" font-size="18" fill="#2dd4bf" font-family="'SF Mono','JetBrains Mono','Fira Code',Menlo,Consolas,'Liberation Mono',monospace" font-weight="700" text-anchor="middle">qryx</text><text x="415.0" y="370" font-size="13.5" fill="#e6edf3" font-family="'Segoe UI', system-ui, -apple-system, Helvetica, Arial, sans-serif" font-weight="600" text-anchor="middle">risk model</text><text x="415.0" y="390" font-size="10.5" fill="#69788b" font-family="'SF Mono','JetBrains Mono','Fira Code',Menlo,Consolas,'Liberation Mono',monospace" font-weight="400" text-anchor="middle">Shor · hygiene · config</text><line x1="290" y1="360.0" x2="323" y2="360.0" stroke="#2dd4bf" stroke-width="2.2"/><path d="M 330 360.0 l -9 -5 l 0 10 z" fill="#2dd4bf"/><rect x="560" y="150" width="330" height="150" rx="14" ry="14" fill="#1b2331" stroke="#283341" stroke-width="1" filter="soft"/><rect x="560" y="150" width="6" height="150" rx="3" ry="3" fill="#ff6b63" stroke="#283341" stroke-width="1"/><circle cx="594" cy="188" r="13" fill="none" stroke="#ff6b63" stroke-width="2"/><circle cx="594" cy="188" r="4" fill="#ff6b63"/><text x="618" y="186" font-size="17" fill="#e6edf3" font-family="'Segoe UI', system-ui, -apple-system, Helvetica, Arial, sans-serif" font-weight="700" text-anchor="start">Quantum-vulnerable</text><text x="618" y="208" font-size="10" fill="#ff6b63" font-family="'SF Mono','JetBrains Mono','Fira Code',Menlo,Consolas,'Liberation Mono',monospace" font-weight="700" text-anchor="start" letter-spacing="1.5">RISK</text><line x1="584" y1="226" x2="866" y2="226" stroke="#222b38" stroke-width="1"/><text x="584" y="250" font-size="13" fill="#e6edf3" font-family="'SF Mono','JetBrains Mono','Fira Code',Menlo,Consolas,'Liberation Mono',monospace" font-weight="600" text-anchor="start">RSA · ECC · DSA</text><text x="584" y="274" font-size="12" fill="#69788b" font-family="'Segoe UI', system-ui, -apple-system, Helvetica, Arial, sans-serif" font-weight="400" text-anchor="start">breakable by Shor&#x27;s algorithm</text><path d="M 500 360.0 C 530.0 360.0, 530.0 225.0, 554 225.0" fill="none" stroke="#ff6b63" stroke-width="1.8" opacity="0.55"/><path d="M 560 225.0 l -9 -5 l 0 10 z" fill="#ff6b63"/><rect x="920" y="150" width="330" height="150" rx="14" ry="14" fill="#1b2331" stroke="#283341" stroke-width="1" filter="soft"/><rect x="920" y="150" width="6" height="150" rx="3" ry="3" fill="#f0544c" stroke="#283341" stroke-width="1"/><circle cx="954" cy="188" r="13" fill="none" stroke="#f0544c" stroke-width="2"/><circle cx="954" cy="188" r="4" fill="#f0544c"/><text x="978" y="186" font-size="17" fill="#e6edf3" font-family="'Segoe UI', system-ui, -apple-system, Helvetica, Arial, sans-serif" font-weight="700" text-anchor="start">Weak</text><text x="978" y="208" font-size="10" fill="#f0544c" font-family="'SF Mono','JetBrains Mono','Fira Code',Menlo,Consolas,'Liberation Mono',monospace" font-weight="700" text-anchor="start" letter-spacing="1.5">RISK</text><line x1="944" y1="226" x2="1226" y2="226" stroke="#222b38" stroke-width="1"/><text x="944" y="250" font-size="13" fill="#e6edf3" font-family="'SF Mono','JetBrains Mono','Fira Code',Menlo,Consolas,'Liberation Mono',monospace" font-weight="600" text-anchor="start">MD5 · SHA-1 · DES · RC4 · RSA&lt;2048</text><text x="944" y="274" font-size="12" fill="#69788b" font-family="'Segoe UI', system-ui, -apple-system, Helvetica, Arial, sans-serif" font-weight="400" text-anchor="start">broken / deprecated primitives</text><rect x="560" y="318" width="330" height="150" rx="14" ry="14" fill="#1b2331" stroke="#283341" stroke-width="1" filter="soft"/><rect x="560" y="318" width="6" height="150" rx="3" ry="3" fill="#e3b341" stroke="#283341" stroke-width="1"/><circle cx="594" cy="356" r="13" fill="none" stroke="#e3b341" stroke-width="2"/><circle cx="594" cy="356" r="4" fill="#e3b341"/><text x="618" y="354" font-size="17" fill="#e6edf3" font-family="'Segoe UI', system-ui, -apple-system, Helvetica, Arial, sans-serif" font-weight="700" text-anchor="start">Misconfig</text><text x="618" y="376" font-size="10" fill="#e3b341" font-family="'SF Mono','JetBrains Mono','Fira Code',Menlo,Consolas,'Liberation Mono',monospace" font-weight="700" text-anchor="start" letter-spacing="1.5">RISK</text><line x1="584" y1="394" x2="866" y2="394" stroke="#222b38" stroke-width="1"/><text x="584" y="418" font-size="13" fill="#e6edf3" font-family="'SF Mono','JetBrains Mono','Fira Code',Menlo,Consolas,'Liberation Mono',monospace" font-weight="600" text-anchor="start">TLS 1.0/1.1 · weak ciphers</text><text x="584" y="442" font-size="12" fill="#69788b" font-family="'Segoe UI', system-ui, -apple-system, Helvetica, Arial, sans-serif" font-weight="400" text-anchor="start">insecure protocol settings</text><path d="M 500 360.0 C 530.0 360.0, 530.0 393.0, 554 393.0" fill="none" stroke="#e3b341" stroke-width="1.8" opacity="0.55"/><path d="M 560 393.0 l -9 -5 l 0 10 z" fill="#e3b341"/><rect x="920" y="318" width="330" height="150" rx="14" ry="14" fill="#1b2331" stroke="#283341" stroke-width="1" filter="soft"/><rect x="920" y="318" width="6" height="150" rx="3" ry="3" fill="#e3b341" stroke="#283341" stroke-width="1"/><circle cx="954" cy="356" r="13" fill="none" stroke="#e3b341" stroke-width="2"/><circle cx="954" cy="356" r="4" fill="#e3b341"/><text x="978" y="354" font-size="17" fill="#e6edf3" font-family="'Segoe UI', system-ui, -apple-system, Helvetica, Arial, sans-serif" font-weight="700" text-anchor="start">Expired</text><text x="978" y="376" font-size="10" fill="#e3b341" font-family="'SF Mono','JetBrains Mono','Fira Code',Menlo,Consolas,'Liberation Mono',monospace" font-weight="700" text-anchor="start" letter-spacing="1.5">RISK</text><line x1="944" y1="394" x2="1226" y2="394" stroke="#222b38" stroke-width="1"/><text x="944" y="418" font-size="13" fill="#e6edf3" font-family="'SF Mono','JetBrains Mono','Fira Code',Menlo,Consolas,'Liberation Mono',monospace" font-weight="600" text-anchor="start">past-due certificates</text><text x="944" y="442" font-size="12" fill="#69788b" font-family="'Segoe UI', system-ui, -apple-system, Helvetica, Arial, sans-serif" font-weight="400" text-anchor="start">validity window elapsed</text><rect x="560" y="486" width="330" height="150" rx="14" ry="14" fill="#1b2331" stroke="#283341" stroke-width="1" filter="soft"/><rect x="560" y="486" width="6" height="150" rx="3" ry="3" fill="#ff6b63" stroke="#283341" stroke-width="1"/><circle cx="594" cy="524" r="13" fill="none" stroke="#ff6b63" stroke-width="2"/><circle cx="594" cy="524" r="4" fill="#ff6b63"/><text x="618" y="522" font-size="17" fill="#e6edf3" font-family="'Segoe UI', system-ui, -apple-system, Helvetica, Arial, sans-serif" font-weight="700" text-anchor="start">Hardcoded</text><text x="618" y="544" font-size="10" fill="#ff6b63" font-family="'SF Mono','JetBrains Mono','Fira Code',Menlo,Consolas,'Liberation Mono',monospace" font-weight="700" text-anchor="start" letter-spacing="1.5">RISK</text><line x1="584" y1="562" x2="866" y2="562" stroke="#222b38" stroke-width="1"/><text x="584" y="586" font-size="13" fill="#e6edf3" font-family="'SF Mono','JetBrains Mono','Fira Code',Menlo,Consolas,'Liberation Mono',monospace" font-weight="600" text-anchor="start">private keys in source/config</text><text x="584" y="610" font-size="12" fill="#69788b" font-family="'Segoe UI', system-ui, -apple-system, Helvetica, Arial, sans-serif" font-weight="400" text-anchor="start">secrets embedded in the tree</text><path d="M 500 360.0 C 530.0 360.0, 530.0 561.0, 554 561.0" fill="none" stroke="#ff6b63" stroke-width="1.8" opacity="0.55"/><path d="M 560 561.0 l -9 -5 l 0 10 z" fill="#ff6b63"/><rect x="920" y="486" width="330" height="150" rx="14" ry="14" fill="#1b2331" stroke="#283341" stroke-width="1" filter="soft"/><rect x="920" y="486" width="6" height="150" rx="3" ry="3" fill="#3fb950" stroke="#283341" stroke-width="1"/><circle cx="954" cy="524" r="13" fill="none" stroke="#3fb950" stroke-width="2"/><circle cx="954" cy="524" r="4" fill="#3fb950"/><text x="978" y="522" font-size="17" fill="#e6edf3" font-family="'Segoe UI', system-ui, -apple-system, Helvetica, Arial, sans-serif" font-weight="700" text-anchor="start">Post-quantum safe</text><text x="978" y="544" font-size="10" fill="#3fb950" font-family="'SF Mono','JetBrains Mono','Fira Code',Menlo,Consolas,'Liberation Mono',monospace" font-weight="700" text-anchor="start" letter-spacing="1.5">SAFE</text><line x1="944" y1="562" x2="1226" y2="562" stroke="#222b38" stroke-width="1"/><text x="944" y="586" font-size="13" fill="#e6edf3" font-family="'SF Mono','JetBrains Mono','Fira Code',Menlo,Consolas,'Liberation Mono',monospace" font-weight="600" text-anchor="start">ML-KEM · ML-DSA</text><text x="944" y="610" font-size="12" fill="#69788b" font-family="'Segoe UI', system-ui, -apple-system, Helvetica, Arial, sans-serif" font-weight="400" text-anchor="start">FIPS 203 / 204 / 205</text></svg>